<?xml version="1.0" encoding="utf-8"?>
<!-- Generator: Adobe Illustrator 19.0.0, SVG Export Plug-In . SVG Version: 6.00 Build 0)  -->
<svg version="1.1" id="Layer_1" xmlns="http://www.w3.org/2000/svg" xmlns:xlink="http://www.w3.org/1999/xlink" x="0px" y="0px"
	 viewBox="0 0 500 500" style="enable-background:new 0 0 500 500;" xml:space="preserve">
<style type="text/css">
	.st0{fill:#00AEEF;}
	.st1{fill:#003768;}
</style>
<g id="XMLID_1_">
	<path id="XMLID_7_" class="st0" d="M252,234.4c33.4,0,60.4-27,60.4-60.4c0-33.4-27.1-60.4-60.4-60.4c-33.4,0-60.4,27.1-60.4,60.4
		C191.6,207.3,218.6,234.4,252,234.4"/>
	<path id="XMLID_6_" class="st0" d="M296.6,222.8c-11.5,12.5-31.8,25-57.9,25c-20.2,0-37.6-7.9-48.7-16.6c-66,6.9-115,16.7-115,16.7
		v26.7l350,0v-55.1C425,219.5,365,219.2,296.6,222.8"/>
	<polyline id="XMLID_5_" class="st1" points="116.6,352.8 116.6,385.3 75,385.3 75,298.7 116.6,298.7 116.6,337.7 116.8,337.7 
		141.3,298.7 191.1,298.7 154.6,343.5 189.1,385.3 141.5,385.3 116.9,352.8 116.6,352.8 	"/>
	<path id="XMLID_4_" class="st1" d="M425,381.7c-9.8,3-22.7,4.8-34.2,4.8c-41.1,0-71.3-11.7-71.3-45.7c0-30.7,29.3-44.1,69.3-44.1
		c11.1,0,25.2,1.2,36.3,4.8l0,29.8c-8.2-5-16.4-8-28.1-8c-15.3,0-30.5,7.5-30.5,18.4c0,10.9,15.2,18.4,30.5,18.4
		c11.5,0,19.9-3.2,28.1-7.9L425,381.7"/>
	<path class="st1" d="M197.9,298.7h84c21.8,0,29,8.5,29,21.7c0,14.8-13.2,21.2-26.8,22v0.2c13.9,1.1,27.5,2.7,27.5,20.1
		c0,11.4-7.2,22.6-31.2,22.6h-82.6V298.7 M239.5,367.7h21.7c8.1,0,10.9-3.4,10.9-8.3c0-5-2.8-8.5-10.8-8.5h-21.8V367.7z
		 M239.5,335.4h20.7c8,0,11.1-3.2,11.1-8.2c0-5.7-3.2-8.5-10.6-8.5h-21.3V335.4z"/>
</g>
</svg>
